<mxfile host="app.diagrams.net" modified="2020-11-02T12:56:11.890Z" agent="5.0 (Windows)" etag="yjDe2I2JIoVHtzRIxUF4" version="13.8.6" type="github">
  <diagram name="Page-1" id="e7e014a7-5840-1c2e-5031-d8a46d1fe8dd">
    <mxGraphModel dx="1955" dy="1080" grid="1" gridSize="10" guides="1" tooltips="1" connect="1" arrows="1" fold="1" page="1" pageScale="1" pageWidth="1169" pageHeight="826" background="#ffffff" math="0" shadow="0">
      <root>
        <mxCell id="0" />
        <mxCell id="1" parent="0" />
        <mxCell id="2" value="User" style="swimlane;whiteSpace=wrap" parent="1" vertex="1">
          <mxGeometry x="164.5" y="128" width="280" height="570" as="geometry" />
        </mxCell>
        <mxCell id="6" value="" style="edgeStyle=elbowEdgeStyle;elbow=horizontal;verticalAlign=bottom;endArrow=open;endSize=8;strokeColor=#FF0000;endFill=1;rounded=0" parent="2" source="5" target="7" edge="1">
          <mxGeometry x="100" y="40" as="geometry">
            <mxPoint x="115" y="110" as="targetPoint" />
            <mxPoint x="140.5" y="55" as="sourcePoint" />
            <Array as="points">
              <mxPoint x="140" y="90" />
            </Array>
          </mxGeometry>
        </mxCell>
        <mxCell id="7" value="mengakses aplikasi &#xa;sikasi" style="" parent="2" vertex="1">
          <mxGeometry x="60" y="110" width="160" height="60" as="geometry" />
        </mxCell>
        <mxCell id="8" value="masukan username &#xa;&#xa;dan password" style="" parent="2" vertex="1">
          <mxGeometry x="60" y="220" width="160" height="50" as="geometry" />
        </mxCell>
        <mxCell id="5" value="" style="ellipse;shape=startState;fillColor=#000000;strokeColor=#ff0000;" parent="2" vertex="1">
          <mxGeometry x="125" y="40" width="30" height="30" as="geometry" />
        </mxCell>
        <mxCell id="3" value="Sistem" style="swimlane;whiteSpace=wrap;startSize=23;" parent="1" vertex="1">
          <mxGeometry x="444.5" y="128" width="280" height="570" as="geometry" />
        </mxCell>
        <mxCell id="13" value="" style="ellipse;shape=startState;fillColor=#000000;strokeColor=#ff0000;" parent="3" vertex="1">
          <mxGeometry x="125.5" y="40" width="30" height="30" as="geometry" />
        </mxCell>
        <mxCell id="14" value="" style="edgeStyle=elbowEdgeStyle;elbow=horizontal;verticalAlign=bottom;endArrow=open;endSize=8;strokeColor=#FF0000;endFill=1;rounded=0" parent="3" source="13" target="15" edge="1">
          <mxGeometry x="40" y="20" as="geometry">
            <mxPoint x="55" y="90" as="targetPoint" />
          </mxGeometry>
        </mxCell>
        <mxCell id="15" value="menampilkan sistem" style="" parent="3" vertex="1">
          <mxGeometry x="75.5" y="110" width="120" height="50" as="geometry" />
        </mxCell>
        <mxCell id="17" value="" style="endArrow=open;strokeColor=#FF0000;endFill=1;rounded=0" parent="3" source="15" edge="1">
          <mxGeometry relative="1" as="geometry">
            <mxPoint x="-134.5" y="212" as="targetPoint" />
            <Array as="points">
              <mxPoint x="135.5" y="192" />
              <mxPoint x="-134.5" y="192" />
            </Array>
          </mxGeometry>
        </mxCell>
        <mxCell id="Hun4BfrowhysbzUq2IaR-51" style="edgeStyle=orthogonalEdgeStyle;rounded=0;orthogonalLoop=1;jettySize=auto;html=1;entryX=0.5;entryY=0;entryDx=0;entryDy=0;strokeColor=#FF0000;" edge="1" parent="3" source="21" target="33">
          <mxGeometry relative="1" as="geometry" />
        </mxCell>
        <mxCell id="Hun4BfrowhysbzUq2IaR-56" value="Ya" style="edgeLabel;html=1;align=center;verticalAlign=middle;resizable=0;points=[];" vertex="1" connectable="0" parent="Hun4BfrowhysbzUq2IaR-51">
          <mxGeometry x="0.0017" y="-7" relative="1" as="geometry">
            <mxPoint x="7" y="-7" as="offset" />
          </mxGeometry>
        </mxCell>
        <mxCell id="21" value="Benar ?" style="rhombus;fillColor=#ffffc0;strokeColor=#ff0000;" parent="3" vertex="1">
          <mxGeometry x="88.25" y="312" width="88.25" height="48" as="geometry" />
        </mxCell>
        <mxCell id="Hun4BfrowhysbzUq2IaR-45" value="Request" style="rounded=0;whiteSpace=wrap;html=1;" vertex="1" parent="3">
          <mxGeometry x="88.25" y="222.5" width="94.5" height="45" as="geometry" />
        </mxCell>
        <mxCell id="Hun4BfrowhysbzUq2IaR-58" style="edgeStyle=orthogonalEdgeStyle;rounded=0;orthogonalLoop=1;jettySize=auto;html=1;exitX=0.5;exitY=1;exitDx=0;exitDy=0;entryX=0.5;entryY=0;entryDx=0;entryDy=0;strokeColor=#FF0000;" edge="1" parent="3" source="33" target="38">
          <mxGeometry relative="1" as="geometry" />
        </mxCell>
        <mxCell id="33" value="Tampilan menu utama &#xa;sikasi" style="" parent="3" vertex="1">
          <mxGeometry x="67.38" y="412" width="130" height="58" as="geometry" />
        </mxCell>
        <mxCell id="Hun4BfrowhysbzUq2IaR-50" style="edgeStyle=orthogonalEdgeStyle;rounded=0;orthogonalLoop=1;jettySize=auto;html=1;strokeColor=#FF0000;" edge="1" parent="3">
          <mxGeometry relative="1" as="geometry">
            <mxPoint x="-144.5" y="272" as="targetPoint" />
            <mxPoint x="88.25000000000011" y="336" as="sourcePoint" />
          </mxGeometry>
        </mxCell>
        <mxCell id="Hun4BfrowhysbzUq2IaR-55" value="Tidak" style="edgeLabel;html=1;align=center;verticalAlign=middle;resizable=0;points=[];" vertex="1" connectable="0" parent="Hun4BfrowhysbzUq2IaR-50">
          <mxGeometry x="-0.6663" y="1" relative="1" as="geometry">
            <mxPoint y="-5" as="offset" />
          </mxGeometry>
        </mxCell>
        <mxCell id="38" value="" style="ellipse;shape=endState;fillColor=#000000;strokeColor=#ff0000" parent="3" vertex="1">
          <mxGeometry x="117.38" y="522" width="30" height="30" as="geometry" />
        </mxCell>
        <mxCell id="4" value="Database" style="swimlane;whiteSpace=wrap" parent="1" vertex="1">
          <mxGeometry x="724.5" y="128" width="280" height="570" as="geometry" />
        </mxCell>
        <mxCell id="Hun4BfrowhysbzUq2IaR-47" value="Verifikasi data" style="rounded=0;whiteSpace=wrap;html=1;" vertex="1" parent="4">
          <mxGeometry x="75.5" y="222.5" width="94.5" height="45" as="geometry" />
        </mxCell>
        <mxCell id="Hun4BfrowhysbzUq2IaR-42" style="edgeStyle=orthogonalEdgeStyle;rounded=0;orthogonalLoop=1;jettySize=auto;html=1;exitX=1;exitY=0.5;exitDx=0;exitDy=0;" edge="1" parent="1" source="7" target="15">
          <mxGeometry relative="1" as="geometry">
            <Array as="points">
              <mxPoint x="450" y="268" />
              <mxPoint x="450" y="268" />
            </Array>
          </mxGeometry>
        </mxCell>
        <mxCell id="Hun4BfrowhysbzUq2IaR-46" style="edgeStyle=orthogonalEdgeStyle;rounded=0;orthogonalLoop=1;jettySize=auto;html=1;exitX=1;exitY=0.5;exitDx=0;exitDy=0;entryX=0;entryY=0.5;entryDx=0;entryDy=0;fillColor=#a20025;strokeColor=#FF0000;" edge="1" parent="1" source="8" target="Hun4BfrowhysbzUq2IaR-45">
          <mxGeometry relative="1" as="geometry" />
        </mxCell>
        <mxCell id="Hun4BfrowhysbzUq2IaR-48" style="edgeStyle=orthogonalEdgeStyle;rounded=0;orthogonalLoop=1;jettySize=auto;html=1;entryX=0;entryY=0.5;entryDx=0;entryDy=0;strokeColor=#FF0000;" edge="1" parent="1" source="Hun4BfrowhysbzUq2IaR-45" target="Hun4BfrowhysbzUq2IaR-47">
          <mxGeometry relative="1" as="geometry" />
        </mxCell>
        <mxCell id="Hun4BfrowhysbzUq2IaR-49" style="edgeStyle=orthogonalEdgeStyle;rounded=0;orthogonalLoop=1;jettySize=auto;html=1;entryX=1;entryY=0.5;entryDx=0;entryDy=0;strokeColor=#FF0000;" edge="1" parent="1" source="Hun4BfrowhysbzUq2IaR-47" target="21">
          <mxGeometry relative="1" as="geometry">
            <Array as="points">
              <mxPoint x="847" y="464" />
            </Array>
          </mxGeometry>
        </mxCell>
      </root>
    </mxGraphModel>
  </diagram>
</mxfile>
